<svg width="1575" height="1490" viewBox="0 0 1575 1490" fill="none" xmlns="http://www.w3.org/2000/svg">
<path fill-rule="evenodd" clip-rule="evenodd" d="M591.757 559.962C596.078 559.962 599.911 557.186 601.258 553.079V553.079C599.911 557.186 596.078 559.962 591.757 559.962V559.962ZM980.197 553.176C981.574 557.233 985.382 559.962 989.666 559.962V559.962C985.382 559.962 981.574 557.233 980.197 553.176V553.176ZM1102.1 931.709C1100.84 927.665 1102.27 923.266 1105.66 920.729V920.729C1102.27 923.266 1100.84 927.665 1102.1 931.709V931.709ZM781.744 1157.5C785.197 1155.08 789.798 1155.08 793.244 1157.51V1157.51C789.798 1155.08 785.198 1155.08 781.744 1157.5V1157.5ZM472.744 920.687C476.185 923.242 477.615 927.706 476.299 931.786V931.786C477.615 927.706 476.185 923.242 472.744 920.687V920.687Z" fill="white"/>
<path fill-rule="evenodd" clip-rule="evenodd" d="M601.258 553.079L778.159 13.9303C781.154 4.80282 794.043 4.73722 797.13 13.8337L980.197 553.176V553.176C981.574 557.233 985.382 559.962 989.666 559.962V559.962C1201.59 404.707 1327.9 434.079 1557.93 559.962C1567.55 559.962 1571.62 572.21 1563.92 577.97C1482.07 792.163 1386.15 870.868 1105.66 920.729V920.729C1102.27 923.266 1100.84 927.665 1102.1 931.709V931.709C1358.4 1068.87 1381.53 1192.43 1270.25 1471.85C1273.09 1480.97 1262.75 1488.5 1254.94 1483L793.244 1157.51V1157.51C789.798 1155.08 785.197 1155.08 781.744 1157.5V1157.5L317.405 1482.86C309.551 1488.36 299.205 1480.73 302.149 1471.6C180.246 1239.95 198.807 1119.61 476.299 931.786V931.786C477.615 927.706 476.185 923.242 472.744 920.687V920.687C243.178 894.091 139.884 823.959 11.2765 577.99C3.5419 572.246 7.60437 559.962 17.2385 559.962C235.678 442.809 361.496 443.333 591.757 559.962V559.962C596.078 559.962 599.911 557.186 601.258 553.079V553.079ZM599 699.962C599 672.348 621.386 649.962 649 649.962H660.5C688.114 649.962 710.5 672.348 710.5 699.962V713.962C710.5 741.576 688.114 763.962 660.5 763.962H649C621.386 763.962 599 741.576 599 713.962V699.962ZM932.5 649.962C960.114 649.962 982.5 672.348 982.5 699.962V713.962C982.5 741.576 960.114 763.962 932.5 763.962H921C893.386 763.962 871 741.576 871 713.962V699.962C871 672.348 893.386 649.962 921 649.962H932.5ZM980.197 910.98C980.197 900.065 969.084 892.646 958.898 896.57C826.856 947.433 745.831 949.429 620.392 897.337C610.301 893.147 599 900.439 599 911.365V911.365C599 916.715 601.887 921.709 606.523 924.379C745.671 1004.51 828.327 1003.3 972.244 924.403C977.128 921.726 980.197 916.55 980.197 910.98V910.98Z" fill="white"/>
<path d="M601.258 553.079L778.159 13.9303M601.258 553.079C599.911 557.186 596.078 559.962 591.757 559.962M601.258 553.079V553.079C599.911 557.186 596.078 559.962 591.757 559.962V559.962M778.159 13.9303C781.154 4.80282 794.043 4.73722 797.13 13.8337M778.159 13.9303V13.9303C779.691 2.95104 795.549 2.8614 797.13 13.8337V13.8337M797.13 13.8337L980.197 553.176M980.197 553.176C981.574 557.233 985.382 559.962 989.666 559.962M980.197 553.176V553.176C981.574 557.233 985.382 559.962 989.666 559.962V559.962M989.666 559.962C1201.59 404.707 1327.9 434.079 1557.93 559.962M1557.93 559.962C1567.55 559.962 1571.62 572.21 1563.92 577.97M1557.93 559.962V559.962C1562.54 554.067 1571.79 559.525 1568.85 566.407L1563.92 577.97M1563.92 577.97C1482.07 792.163 1386.15 870.868 1105.66 920.729M1105.66 920.729C1102.27 923.266 1100.84 927.665 1102.1 931.709M1105.66 920.729V920.729C1102.27 923.266 1100.84 927.665 1102.1 931.709V931.709M1102.1 931.709C1358.4 1068.87 1381.53 1192.43 1270.25 1471.85M1270.25 1471.85C1273.09 1480.97 1262.75 1488.5 1254.94 1483M1270.25 1471.85L1279 1461.5L1254.94 1483M1254.94 1483L793.244 1157.51M793.244 1157.51C789.798 1155.08 785.198 1155.08 781.744 1157.5M793.244 1157.51V1157.51C789.798 1155.08 785.197 1155.08 781.744 1157.5V1157.5M781.744 1157.5L317.405 1482.86M317.405 1482.86C309.551 1488.36 299.205 1480.73 302.149 1471.6M317.405 1482.86L293 1461.5L302.149 1471.6M302.149 1471.6C180.246 1239.95 198.807 1119.61 476.299 931.786M476.299 931.786C477.615 927.706 476.185 923.242 472.744 920.687M476.299 931.786V931.786C477.615 927.706 476.185 923.242 472.744 920.687V920.687M472.744 920.687C243.178 894.091 139.884 823.959 11.2765 577.99M11.2765 577.99C3.5419 572.246 7.60437 559.962 17.2385 559.962M11.2765 577.99L6.31726 566.45C3.3577 559.563 12.6057 554.069 17.2385 559.962V559.962M17.2385 559.962C235.678 442.809 361.496 443.333 591.757 559.962M606.523 924.379C745.671 1004.51 828.327 1003.3 972.244 924.403C977.128 921.726 980.197 916.55 980.197 910.98V910.98C980.197 900.065 969.084 892.646 958.898 896.57C826.856 947.433 745.831 949.429 620.392 897.337C610.301 893.147 599 900.439 599 911.365V911.365C599 916.715 601.887 921.709 606.523 924.379ZM871 699.962V713.962C871 741.576 893.386 763.962 921 763.962H932.5C960.114 763.962 982.5 741.576 982.5 713.962V699.962C982.5 672.348 960.114 649.962 932.5 649.962H921C893.386 649.962 871 672.348 871 699.962ZM649 763.962H660.5C688.114 763.962 710.5 741.576 710.5 713.962V699.962C710.5 672.348 688.114 649.962 660.5 649.962H649C621.386 649.962 599 672.348 599 699.962V713.962C599 741.576 621.386 763.962 649 763.962Z" stroke="#00FFF0" stroke-width="10"/>
</svg>
