<svg width="3681" height="2039" viewBox="0 0 3681 2039" fill="none" xmlns="http://www.w3.org/2000/svg">
<path d="M1595.21 719L2097.58 9.12273C2100.3 5.28268 2104.71 3 2109.42 3V3C2121.18 3 2128.04 16.2582 2121.26 25.8612L1631.7 719H1595.21Z" fill="#00FFFF"/>
<path d="M1595.21 719L2097.58 9.12273C2100.3 5.28268 2104.71 3 2109.42 3V3C2121.18 3 2128.04 16.2582 2121.26 25.8612L1631.7 719H1595.21Z" fill="white"/>
<path d="M1595.21 719L2097.58 9.12273C2100.3 5.28268 2104.71 3 2109.42 3V3C2121.18 3 2128.04 16.2582 2121.26 25.8612L1631.7 719H1595.21Z" fill="#35D2D2" fill-opacity="0.2"/>
<path d="M2211.96 3C2216.35 3 2220.49 5.03661 2223.16 8.51262L2770.21 719H2729.2L2200.72 25.7082C2193.62 16.4026 2200.26 3 2211.96 3V3Z" fill="#00FFFF"/>
<path d="M2211.96 3C2216.35 3 2220.49 5.03661 2223.16 8.51262L2770.21 719H2729.2L2200.72 25.7082C2193.62 16.4026 2200.26 3 2211.96 3V3Z" fill="white"/>
<path d="M2211.96 3C2216.35 3 2220.49 5.03661 2223.16 8.51262L2770.21 719H2729.2L2200.72 25.7082C2193.62 16.4026 2200.26 3 2211.96 3V3Z" fill="#35D2D2" fill-opacity="0.2"/>
<path fill-rule="evenodd" clip-rule="evenodd" d="M3677.2 834.045L3507.14 1951.55C3499.7 2000.4 3457.7 2036.5 3408.28 2036.5L969.055 2036.5C920.113 2036.5 1 2036.5 633.5 1951.55C1266 1866.59 987.626 1904.98 1029 1900C1543.09 1838.12 1680.5 1273 667 1002.5C-346.5 732 -16 719 451 719C918 719 749.804 719 767.923 719L1595.21 719H1631.7L2729.2 719H2770.21C2770.21 719 3511.18 719 3578.34 719C3645.5 719 3686.41 773.519 3677.2 834.045ZM1795 1058.25C1795 990.733 1740.27 936 1672.75 936H1670.25C1602.73 936 1548 990.733 1548 1058.25V1058.25C1548 1125.77 1602.73 1180.5 1670.25 1180.5H1672.75C1740.27 1180.5 1795 1125.77 1795 1058.25V1058.25Z" fill="#00FFFF"/>
<path fill-rule="evenodd" clip-rule="evenodd" d="M3677.2 834.045L3507.14 1951.55C3499.7 2000.4 3457.7 2036.5 3408.28 2036.5L969.055 2036.5C920.113 2036.5 1 2036.5 633.5 1951.55C1266 1866.59 987.626 1904.98 1029 1900C1543.09 1838.12 1680.5 1273 667 1002.5C-346.5 732 -16 719 451 719C918 719 749.804 719 767.923 719L1595.21 719H1631.7L2729.2 719H2770.21C2770.21 719 3511.18 719 3578.34 719C3645.5 719 3686.41 773.519 3677.2 834.045ZM1795 1058.25C1795 990.733 1740.27 936 1672.75 936H1670.25C1602.73 936 1548 990.733 1548 1058.25V1058.25C1548 1125.77 1602.73 1180.5 1670.25 1180.5H1672.75C1740.27 1180.5 1795 1125.77 1795 1058.25V1058.25Z" fill="white"/>
<path d="M1595.21 719L767.923 719C749.804 719 918 719 451 719C-16 719 -346.5 732 667 1002.5C1680.5 1273 1543.09 1838.12 1029 1900C987.626 1904.98 1266 1866.59 633.5 1951.55C1 2036.5 920.113 2036.5 969.055 2036.5L3408.28 2036.5C3457.7 2036.5 3499.7 2000.4 3507.14 1951.55L3677.2 834.045C3686.41 773.519 3645.5 719 3578.34 719C3511.18 719 2770.21 719 2770.21 719M1595.21 719L2097.58 9.12273C2100.3 5.28268 2104.71 3 2109.42 3V3C2121.18 3 2128.04 16.2582 2121.26 25.8612L1631.7 719M1595.21 719H1631.7M2770.21 719L2223.16 8.51262C2220.49 5.03661 2216.35 3 2211.96 3V3C2200.26 3 2193.62 16.4026 2200.72 25.7082L2729.2 719M2770.21 719H2729.2M1631.7 719L2729.2 719M1672.75 1180.5H1670.25C1602.73 1180.5 1548 1125.77 1548 1058.25V1058.25C1548 990.733 1602.73 936 1670.25 936H1672.75C1740.27 936 1795 990.733 1795 1058.25V1058.25C1795 1125.77 1740.27 1180.5 1672.75 1180.5Z" stroke="#00FFFF" stroke-width="5"/>
</svg>
